<svg width="194" height="33" viewBox="0 0 194 33" fill="none" xmlns="http://www.w3.org/2000/svg">
<path d="M0 31.9545V23.4739H1.69409C2.3863 21.6136 2.87813 19.6712 3.16959 17.6468C3.47926 15.6224 3.63409 12.8958 3.63409 9.46704V8.97461H18.1978V23.4739H20.3564L19.7553 31.9545H15.2741V28.1246H5.10959L4.75438 31.9545H0ZM7.24086 23.4739H12.8969V13.6253H8.74369V13.8168C8.74369 17.2456 8.24275 20.4646 7.24086 23.4739Z" fill="white"/>
<path d="M22.147 28.1246V13.3244H27.3385V18.5769H31.6011V13.3244H36.7926V28.1246H31.6011V22.7626H27.3385V28.1246H22.147Z" fill="white"/>
<path d="M46.8942 28.4802C44.5626 28.4802 42.659 27.7689 41.1835 26.3463C39.708 24.9238 38.9702 23.0544 38.9702 20.7381C38.9702 18.5496 39.6716 16.7167 41.0742 15.2394C42.4768 13.7439 44.262 12.9961 46.4297 12.9961C48.8524 12.9961 50.7014 13.7621 51.9765 15.2941C53.2516 16.8261 53.8892 18.7593 53.8892 21.0938C53.8892 21.568 53.88 21.9236 53.8618 22.1607H43.9705C44.3895 23.7839 45.4551 24.5955 47.1674 24.5955C48.3333 24.5955 49.4262 24.0939 50.4463 23.0909L53.3153 25.4709C51.7306 27.4771 49.5902 28.4802 46.8942 28.4802ZM43.8886 19.5071H49.0255C48.9344 18.6864 48.6612 18.0389 48.2058 17.5647C47.7504 17.0723 47.1674 16.8261 46.457 16.8261C45.783 16.8261 45.2183 17.0723 44.7629 17.5647C44.3257 18.0389 44.0343 18.6864 43.8886 19.5071Z" fill="white"/>
<path d="M56.1152 28.1246V13.3244H70.5423V28.1246H65.3507V17.51H61.3068V28.1246H56.1152Z" fill="white"/>
<path d="M73.3261 32.5017V13.3244H78.5177V15.2941C79.7746 13.7621 81.2683 12.9961 82.9988 12.9961C84.8204 12.9961 86.3688 13.7074 87.6439 15.1299C88.919 16.5343 89.5566 18.3946 89.5566 20.7108C89.5566 23.0453 88.919 24.9238 87.6439 26.3463C86.387 27.7507 84.8478 28.4528 83.0262 28.4528C81.241 28.4528 79.7382 27.7416 78.5177 26.319V32.5017H73.3261ZM81.414 24.1031C82.2702 24.1031 82.9897 23.7839 83.5726 23.1456C84.1556 22.5072 84.447 21.6865 84.447 20.6834C84.447 19.7168 84.1556 18.9235 83.5726 18.3034C82.9897 17.665 82.2702 17.3459 81.414 17.3459C80.5761 17.3459 79.8657 17.665 79.2828 18.3034C78.6999 18.9417 78.4084 19.7533 78.4084 20.7381C78.4084 21.7048 78.6999 22.5072 79.2828 23.1456C79.8657 23.7839 80.5761 24.1031 81.414 24.1031Z" fill="white"/>
<path d="M99.3326 28.4802C97.001 28.4802 95.061 27.7324 93.5126 26.2369C91.9642 24.7232 91.1901 22.8902 91.1901 20.7381C91.1901 18.6043 91.9642 16.7805 93.5126 15.2667C95.0792 13.753 97.0374 12.9961 99.3873 12.9961C101.719 12.9961 103.659 13.753 105.207 15.2667C106.756 16.7623 107.53 18.5861 107.53 20.7381C107.53 22.872 106.747 24.6958 105.18 26.2096C103.632 27.7233 101.682 28.4802 99.3326 28.4802ZM99.3873 24.0757C100.316 24.0757 101.063 23.7565 101.628 23.1182C102.193 22.4799 102.475 21.6865 102.475 20.7381C102.475 19.8262 102.174 19.042 101.573 18.3854C100.972 17.7289 100.225 17.4006 99.3326 17.4006C98.4036 17.4006 97.6567 17.7198 97.092 18.3581C96.5274 18.9964 96.245 19.7898 96.245 20.7381C96.245 21.65 96.5456 22.4343 97.1467 23.0909C97.7478 23.7474 98.4947 24.0757 99.3873 24.0757Z" fill="white"/>
<path d="M109.723 28.1246V13.3244H118.494C120.297 13.3244 121.645 13.7712 122.538 14.6649C123.175 15.2667 123.494 16.0692 123.494 17.0723C123.494 18.6043 122.729 19.7077 121.199 20.3825C122.146 20.6926 122.847 21.1394 123.303 21.723C123.776 22.2884 124.013 23.0635 124.013 24.0484C124.013 25.325 123.521 26.3281 122.538 27.0576C121.554 27.7689 120.179 28.1246 118.412 28.1246H109.723ZM114.778 24.7596H116.909C117.51 24.7596 117.974 24.6411 118.302 24.404C118.648 24.1487 118.821 23.8021 118.821 23.3644C118.821 22.9632 118.648 22.6349 118.302 22.3796C117.974 22.1242 117.492 21.9966 116.854 21.9966H114.778V24.7596ZM114.778 19.2062H116.526C117.109 19.2062 117.565 19.0876 117.892 18.8505C118.22 18.6134 118.384 18.2942 118.384 17.893C118.384 17.51 118.229 17.2091 117.92 16.9902C117.61 16.7531 117.173 16.6346 116.608 16.6346H114.778V19.2062Z" fill="white"/>
<path d="M133.505 28.4802C131.301 28.4802 129.461 27.7324 127.985 26.2369C126.51 24.7232 125.772 22.8902 125.772 20.7381C125.772 18.6043 126.519 16.7896 128.013 15.2941C129.506 13.7803 131.401 13.0235 133.696 13.0235C136.519 13.0235 138.623 14.1269 140.008 16.3337L136.538 18.8505C135.845 17.8839 134.953 17.4006 133.86 17.4006C132.931 17.4006 132.193 17.7198 131.647 18.3581C131.1 18.9964 130.827 19.7898 130.827 20.7381C130.827 21.7048 131.1 22.5072 131.647 23.1456C132.193 23.7839 132.904 24.1031 133.778 24.1031C134.361 24.1031 134.853 23.9754 135.253 23.7201C135.672 23.4647 136.11 23.0726 136.565 22.5437L140.09 25.0879C138.56 27.3494 136.365 28.4802 133.505 28.4802Z" fill="white"/>
<path d="M141.93 28.1246V13.3244H147.121V18.8232L151.138 13.3244H157.013L151.958 19.3977L157.149 28.1246H151.438L148.624 23.3918L147.121 25.1973V28.1246H141.93Z" fill="white"/>
<path d="M158.393 28.1246V13.3244H163.421V20.7381L168.339 13.3244H173.121V28.1246H168.094V20.7108L163.175 28.1246H158.393Z" fill="white"/>
<path d="M176.199 28.1246V8.97461H181.445V19.7533L188.85 8.97461H193.795V28.1246H188.549V17.3459L181.144 28.1246H176.199Z" fill="white"/>
<path d="M182.801 3.17324C182.422 3.39435 181.938 3.49994 181.425 3.44091C181.268 3.42282 181.117 3.38988 180.975 3.34479C180.864 3.64634 180.647 3.90269 180.359 4.08933C180.147 4.2274 179.896 4.32749 179.624 4.37969C179.624 4.38106 179.624 4.38275 179.624 4.38439C179.579 4.76964 179.369 5.10327 179.055 5.3455C178.299 4.61239 178.307 3.55816 179.052 2.89209C179.156 2.79854 179.275 2.7125 179.409 2.63621L179.437 2.62025C179.723 2.45657 180.045 2.35698 180.378 2.31885C181.084 2.23689 181.837 2.43174 182.395 2.87581C182.525 2.97942 182.661 3.07868 182.801 3.17324Z" fill="#ED3812"/>
<path d="M191.641 2.1819C191.123 5.41097 187.532 7.62722 183.491 7.16167C182.957 7.10006 182.441 6.99447 181.948 6.85047C180.952 6.55872 180.052 6.1088 179.288 5.54295C179.204 5.48044 179.126 5.41452 179.055 5.3455C179.369 5.10327 179.579 4.76964 179.624 4.38439C179.624 4.38275 179.624 4.38106 179.624 4.37969C180.265 4.25691 180.783 3.86948 180.975 3.34479C181.117 3.38988 181.268 3.42282 181.425 3.44091C181.938 3.49994 182.422 3.39435 182.801 3.17324C183.675 3.7607 184.746 4.16615 185.93 4.30257C188.305 4.57611 190.485 3.69321 191.641 2.1819Z" fill="#ED3812"/>
<path d="M179.624 4.37969C179.624 4.38106 179.624 4.38275 179.624 4.38439C179.579 4.76964 179.369 5.10327 179.055 5.3455C178.299 4.61239 178.307 3.55816 179.052 2.89209C179.156 2.79854 179.275 2.7125 179.409 2.63621L179.437 2.62025C179.723 2.45657 180.045 2.35698 180.378 2.31885L180.385 2.36828C180.385 2.36828 179.471 3.15214 180.358 4.0878C180.358 4.08843 180.359 4.08874 180.359 4.08933C180.147 4.2274 179.896 4.32749 179.624 4.37969Z" fill="#ED3812"/>
<path d="M181.948 6.85047C180.952 6.55872 180.052 6.1088 179.288 5.54295C179.204 5.48044 179.126 5.41452 179.055 5.3455C179.369 5.10327 179.579 4.76964 179.624 4.38439C179.624 4.38275 179.624 4.38106 179.624 4.37969C180.265 4.25691 180.783 3.86948 180.975 3.34479C181.117 3.38988 181.268 3.42282 181.425 3.44091C181.425 3.44091 179.895 5.69812 181.948 6.85047Z" fill="#ED3812"/>
<path d="M185.834 5.13887C184.964 5.03867 184.129 4.81289 183.351 4.46783C183.225 4.41191 183.174 4.28538 183.236 4.18521C183.299 4.08504 183.452 4.04914 183.578 4.10513C184.3 4.42516 185.074 4.63459 185.882 4.72758C187.129 4.87134 188.375 4.72423 189.484 4.30211C189.523 4.2874 189.561 4.27242 189.599 4.2571C189.723 4.20743 189.878 4.25093 189.945 4.3543C190.012 4.45769 189.966 4.5818 189.842 4.6315C189.801 4.64804 189.759 4.66419 189.718 4.68006C188.522 5.13517 187.179 5.29384 185.834 5.13887Z" fill="#ED3812"/>
<path d="M182.74 4.14045C182.88 4.1566 183.005 4.07762 183.018 3.96405C183.031 3.85047 182.928 3.74531 182.788 3.72916C182.648 3.71301 182.523 3.79199 182.51 3.90556C182.497 4.01914 182.6 4.12431 182.74 4.14045Z" fill="#ED3812"/>
<path d="M191.726 1.98934C191.612 1.95246 191.486 1.98442 191.423 2.06598C190.871 2.78782 190.076 3.36062 189.126 3.72247C188.15 4.09394 187.053 4.22338 185.954 4.09678C184.676 3.94956 183.506 3.47721 182.569 2.73079C181.654 2.00223 180.272 1.88348 179.284 2.44841L179.256 2.46434C179.205 2.49361 179.155 2.52445 179.107 2.55654C178.897 2.18006 178.619 1.35734 179.445 0.41177C179.524 0.32046 179.495 0.190122 179.379 0.120714C179.263 0.0512673 179.104 0.0690564 179.024 0.16037C178.332 0.953375 178.317 1.68136 178.427 2.15241C178.501 2.47258 178.641 2.72022 178.739 2.86529C178.433 3.18791 178.255 3.58617 178.237 4.01473C178.211 4.64563 178.533 5.25754 179.122 5.69361C180.348 6.60219 181.851 7.18094 183.468 7.36726C185.485 7.59966 187.466 7.19414 189.047 6.22542C190.623 5.25916 191.634 3.83615 191.894 2.21856C191.91 2.1218 191.839 2.0262 191.726 1.98934ZM178.747 4.04879C178.768 3.5443 179.065 3.09215 179.562 2.80829L179.59 2.79236C180.005 2.55489 180.508 2.4687 180.998 2.52517C181.441 2.57617 181.873 2.74356 182.221 3.02097C182.269 3.05901 182.318 3.09619 182.367 3.1329C182.084 3.23574 181.768 3.27205 181.449 3.2353C181.317 3.22004 181.185 3.19182 181.057 3.15143C180.991 3.13065 180.919 3.13231 180.857 3.15593C180.796 3.17955 180.75 3.22317 180.73 3.27668C180.566 3.72479 180.116 4.06985 179.554 4.17722C179.453 4.19661 179.38 4.26538 179.37 4.35033C179.369 4.35397 179.369 4.35764 179.369 4.36133C179.34 4.60011 179.235 4.82489 179.067 5.01335C178.846 4.72468 178.732 4.39027 178.747 4.04879ZM188.728 5.88905C187.251 6.79418 185.4 7.17309 183.515 6.95594C182.004 6.78184 180.6 6.24116 179.455 5.39236C179.437 5.37941 179.42 5.36588 179.404 5.35254C179.637 5.12305 179.793 4.84472 179.856 4.54512C180.429 4.3947 180.896 4.04914 181.134 3.60227C181.223 3.62149 181.312 3.63633 181.402 3.64665C181.894 3.70333 182.381 3.62618 182.794 3.42915C183.703 4.00661 184.766 4.37661 185.907 4.5081C187.103 4.6459 188.297 4.50493 189.359 4.10043C190.04 3.84128 190.648 3.48268 191.155 3.04379C190.739 4.18035 189.901 5.16999 188.728 5.88905Z" fill="#ED3812"/>
</svg>
