<svg width="17" height="16" viewBox="0 0 17 16" fill="none" xmlns="http://www.w3.org/2000/svg">
<path d="M7.22481 16C7.92895 16 8.49977 15.403 8.49977 14.6667C8.49977 13.9303 7.92895 13.3333 7.22481 13.3333C6.52066 13.3333 5.94984 13.9303 5.94984 14.6667C5.94984 15.403 6.52066 16 7.22481 16Z" fill="white"/>
<path d="M13.1747 16C13.8788 16 14.4496 15.403 14.4496 14.6667C14.4496 13.9303 13.8788 13.3333 13.1747 13.3333C12.4705 13.3333 11.8997 13.9303 11.8997 14.6667C11.8997 15.403 12.4705 16 13.1747 16Z" fill="white"/>
<path d="M13.0106 10.6667H7.36676L5.24181 5.33334H14.9231L13.0106 10.6667Z" fill="white"/>
<path fill-rule="evenodd" clip-rule="evenodd" d="M16.8483 3.93867C16.7701 3.82051 16.6657 3.72393 16.544 3.65721C16.4223 3.59049 16.287 3.55561 16.1496 3.55556H4.53293L3.55206 1.09334C3.42345 0.76909 3.20566 0.492082 2.92632 0.297436C2.64698 0.102789 2.31867 -0.000729813 1.983 3.8731e-06H0V1.77778H1.983L6.01529 11.8978C6.07988 12.0597 6.18884 12.198 6.32844 12.2953C6.46805 12.3926 6.63206 12.4445 6.79982 12.4444H13.5996C13.9541 12.4444 14.2711 12.2142 14.3961 11.8684L16.946 4.75734C16.9942 4.62278 17.0105 4.47801 16.9935 4.33543C16.9764 4.19284 16.9266 4.0567 16.8483 3.93867ZM7.36676 10.6667H13.0106L14.9231 5.33334H5.24181L7.36676 10.6667Z" fill="white"/>
</svg>
