<svg width="35" height="33" viewBox="0 0 35 33" fill="none" xmlns="http://www.w3.org/2000/svg">
<path d="M14.8746 33C16.3243 33 17.4995 31.7688 17.4995 30.25C17.4995 28.7312 16.3243 27.5 14.8746 27.5C13.4249 27.5 12.2497 28.7312 12.2497 30.25C12.2497 31.7688 13.4249 33 14.8746 33Z" fill="#222222"/>
<path d="M27.1243 33C28.574 33 29.7492 31.7688 29.7492 30.25C29.7492 28.7312 28.574 27.5 27.1243 27.5C25.6746 27.5 24.4994 28.7312 24.4994 30.25C24.4994 31.7688 25.6746 33 27.1243 33Z" fill="#222222"/>
<path d="M26.7865 22H15.1668L10.792 11H30.7239L26.7865 22Z" fill="#222222"/>
<path fill-rule="evenodd" clip-rule="evenodd" d="M34.6876 8.12351C34.5266 7.87981 34.3117 7.68061 34.0611 7.543C33.8106 7.40538 33.532 7.33344 33.2491 7.33334H9.3325L7.31306 2.25501C7.04827 1.58625 6.5999 1.01492 6.02478 0.613461C5.44967 0.212003 4.77372 -0.00150524 4.08264 7.98827e-06H0V3.66667H4.08264L12.3844 24.5392C12.5174 24.8731 12.7417 25.1584 13.0291 25.359C13.3166 25.5597 13.6542 25.6667 13.9996 25.6667H27.9993C28.729 25.6667 29.3817 25.1918 29.639 24.4787L34.8888 9.81201C34.988 9.53448 35.0216 9.23589 34.9865 8.94181C34.9515 8.64774 34.8489 8.36695 34.6876 8.12351ZM15.1668 22H26.7865L30.7239 11H10.792L15.1668 22Z" fill="#222222"/>
</svg>
