<svg width="8" height="11" viewBox="0 0 8 11" fill="none" xmlns="http://www.w3.org/2000/svg">
<path d="M4 5.50805e-09C2.94603 -5.79642e-05 1.93463 0.457466 1.18562 1.27313C0.436615 2.0888 0.0105397 3.19668 0 4.35599C0 7.36998 3.525 10.725 3.675 10.868C3.76557 10.9532 3.88082 11 4 11C4.11918 11 4.23443 10.9532 4.325 10.868C4.5 10.725 8 7.36998 8 4.35599C7.98946 3.19668 7.56339 2.0888 6.81438 1.27313C6.06537 0.457466 5.05397 -5.79642e-05 4 5.50805e-09ZM4 6.04998C3.65388 6.04998 3.31554 5.93708 3.02775 5.72556C2.73997 5.51404 2.51566 5.2134 2.38321 4.86165C2.25076 4.5099 2.2161 4.12285 2.28363 3.74944C2.35115 3.37603 2.51782 3.03303 2.76256 2.76381C3.00731 2.4946 3.31912 2.31126 3.65859 2.23698C3.99806 2.1627 4.34993 2.20083 4.6697 2.34652C4.98947 2.49222 5.26278 2.73895 5.45507 3.05552C5.64736 3.37208 5.75 3.74426 5.75 4.12499C5.75 4.63553 5.56563 5.12516 5.23744 5.48616C4.90925 5.84717 4.46413 6.04998 4 6.04998Z" fill="#F04926"/>
</svg>
