<svg width="10" height="8" viewBox="0 0 10 8" fill="none" xmlns="http://www.w3.org/2000/svg">
<path d="M10 2.12693V6.6C10 7.37333 9.38158 8 8.61842 8H1.38158C1.01516 8 0.663751 7.8525 0.404655 7.58995C0.145559 7.3274 0 6.9713 0 6.6V2.12693L4.84158 4.8256C4.94026 4.88053 5.06 4.88053 5.15842 4.8256L10 2.12693ZM8.61842 6.02086e-09C8.97907 3.39615e-05 9.32542 0.142974 9.58347 0.398287C9.84152 0.6536 9.99082 1.00104 9.99947 1.3664L5 4.15307L0.000526278 1.36613L0.00105268 1.34213C0.0157902 0.981135 0.167686 0.639888 0.424976 0.389754C0.682266 0.139619 1.02503 -3.34808e-05 1.38158 6.02086e-09H8.61842Z" fill="#F04926"/>
</svg>
