<svg width="8" height="12" viewBox="0 0 8 12" fill="none" xmlns="http://www.w3.org/2000/svg">
<path d="M0 1.5C0 1.10218 0.168571 0.720644 0.468629 0.43934C0.768687 0.158035 1.17565 0 1.6 0H6.4C6.82435 0 7.23131 0.158035 7.53137 0.43934C7.83143 0.720644 8 1.10218 8 1.5V10.5C8 10.8978 7.83143 11.2794 7.53137 11.5607C7.23131 11.842 6.82435 12 6.4 12H1.6C1.17565 12 0.768687 11.842 0.468629 11.5607C0.168571 11.2794 0 10.8978 0 10.5V1.5ZM4.8 9.75C4.8 9.55109 4.71571 9.36032 4.56569 9.21967C4.41566 9.07902 4.21217 9 4 9C3.78783 9 3.58434 9.07902 3.43431 9.21967C3.28429 9.36032 3.2 9.55109 3.2 9.75C3.2 9.94891 3.28429 10.1397 3.43431 10.2803C3.58434 10.421 3.78783 10.5 4 10.5C4.21217 10.5 4.41566 10.421 4.56569 10.2803C4.71571 10.1397 4.8 9.94891 4.8 9.75Z" fill="#F04926"/>
</svg>
