<svg width="41" height="41" viewBox="0 0 41 41" fill="none" xmlns="http://www.w3.org/2000/svg">
<path d="M40.944 28.9266C40.7292 28.1842 39.9596 27.7582 39.225 27.9753L18.4458 34.114C17.6982 33.0364 16.4835 32.3131 15.1009 32.2482L7.07525 3.89568C6.97414 3.53848 6.73678 3.23663 6.41549 3.05635C6.0942 2.87607 5.71515 2.83215 5.36171 2.93433L1.00504 4.19394C0.269222 4.40671 -0.156723 5.18206 0.0538105 5.9257C0.264344 6.66934 1.03153 7.09948 1.76735 6.88704L4.79165 6.01264L12.4366 33.0206C11.3068 33.8117 10.5649 35.1303 10.5649 36.6215C10.5649 39.0359 12.5083 41 14.8973 41C17.2262 41 19.131 39.1329 19.2251 36.8021L40.0026 30.664C40.7372 30.4469 41.1587 29.6692 40.944 28.9266ZM14.8973 38.1988C14.0366 38.1988 13.3365 37.4912 13.3365 36.6214C13.3365 35.7516 14.0366 35.044 14.8973 35.044C15.7579 35.044 16.458 35.7516 16.458 36.6214C16.458 37.4912 15.7579 38.1988 14.8973 38.1988Z" fill="#FCB603"/>
<path d="M12.3781 17.1208C12.4793 17.4806 12.8078 17.7319 13.1772 17.7319C13.2537 17.7319 13.3303 17.7211 13.405 17.6997L30.4681 12.7996C30.6817 12.7382 30.859 12.5965 30.9671 12.4004C31.0752 12.2043 31.1012 11.9774 31.0406 11.7615L27.9055 0.611091C27.8043 0.251316 27.4758 0 27.1065 0C27.03 0 26.9533 0.0108683 26.8786 0.0323809L9.81551 4.93254C9.60188 4.99382 9.4246 5.13567 9.3164 5.33175C9.2083 5.52783 9.18214 5.75461 9.24289 5.97063L12.3781 17.1208ZM16.657 7.22093L22.1088 5.65533C22.1837 5.63371 22.2605 5.62284 22.337 5.62284C22.7062 5.62284 23.0347 5.87416 23.1359 6.23393C23.2612 6.67965 23.0044 7.1453 22.5634 7.27202L17.1117 8.83773C17.037 8.85925 16.9602 8.87012 16.8837 8.87012C16.5143 8.87012 16.1858 8.61891 16.0846 8.25914C15.9592 7.81331 16.216 7.34765 16.657 7.22093Z" fill="#FCB603"/>
<path d="M30.8127 14.0251L13.7497 18.9251C13.536 18.9865 13.3588 19.1282 13.2507 19.3242C13.1425 19.5203 13.1163 19.7472 13.1771 19.9631L16.3122 31.1137C16.4134 31.4735 16.7421 31.7247 17.1113 31.7247C17.1878 31.7247 17.2644 31.7139 17.3392 31.6923L34.4024 26.7922C34.616 26.7308 34.7933 26.5891 34.9014 26.3931C35.0096 26.1969 35.0357 25.9701 34.975 25.7542L31.8398 14.6035C31.7387 14.2439 31.4101 13.9926 31.0407 13.9926C30.9642 13.9927 30.8875 14.0037 30.8127 14.0251ZM26.9963 20.8655C26.8882 21.0616 26.711 21.2033 26.4973 21.2647L21.0456 22.8303C20.971 22.8517 20.8943 22.8627 20.8178 22.8627C20.4485 22.8627 20.1199 22.6114 20.0187 22.2516C19.9579 22.0357 19.9841 21.8088 20.0923 21.6127C20.2004 21.4166 20.3777 21.2749 20.5913 21.2135L26.0429 19.6479C26.1177 19.6264 26.1944 19.6155 26.2709 19.6155C26.6402 19.6155 26.9688 19.8668 27.0699 20.2266C27.1307 20.4425 27.1045 20.6694 26.9963 20.8655Z" fill="#FCB603"/>
<path d="M16.657 7.22093L22.1088 5.65533C22.1837 5.63371 22.2605 5.62284 22.337 5.62284C22.7062 5.62284 23.0347 5.87416 23.1359 6.23393C23.2612 6.67965 23.0044 7.1453 22.5634 7.27202L17.1117 8.83773C17.037 8.85925 16.9602 8.87012 16.8837 8.87012C16.5143 8.87012 16.1858 8.61891 16.0846 8.25914C15.9592 7.81331 16.216 7.34765 16.657 7.22093Z" fill="#FCB603"/>
<path d="M26.9963 20.8655C26.8882 21.0616 26.711 21.2033 26.4973 21.2647L21.0456 22.8303C20.971 22.8517 20.8943 22.8627 20.8178 22.8627C20.4485 22.8627 20.1199 22.6114 20.0187 22.2516C19.9579 22.0357 19.9841 21.8088 20.0923 21.6127C20.2004 21.4166 20.3777 21.2749 20.5913 21.2135L26.0429 19.6479C26.1177 19.6264 26.1944 19.6155 26.2709 19.6155C26.6402 19.6155 26.9688 19.8668 27.0699 20.2266C27.1307 20.4425 27.1045 20.6694 26.9963 20.8655Z" fill="#FCB603"/>
</svg>
