<svg width="44" height="46" viewBox="0 0 44 46" fill="none" xmlns="http://www.w3.org/2000/svg">
<path d="M43.2923 0.874128C43.1608 0.541381 42.9079 0.272954 42.5864 0.124689C42.2648 -0.0235767 41.8994 -0.0402651 41.566 0.0780954C41.2327 0.196456 40.9571 0.440752 40.7966 0.760162C40.6362 1.07957 40.6032 1.4495 40.7045 1.793C42.8115 7.94183 38.6292 12.5339 35.4403 14.9934L34.152 13.1188C33.7188 12.4901 32.7504 11.9674 31.9974 11.9581L24.7668 11.9904C23.8835 12.0175 23.0238 12.2864 22.2787 12.7688L0.972445 27.9382C0.476861 28.2923 0.139654 28.8314 0.0346566 29.4374C-0.0703408 30.0434 0.0654263 30.6669 0.412232 31.1715L10.0946 45.2378C10.8204 46.2856 11.9794 46.159 13.0136 45.4267L34.3199 30.2549C34.9322 29.8151 35.6399 28.8663 35.8894 28.1408L38.1529 20.8981C38.4024 20.175 38.2504 19.0719 37.8172 18.4432L37.0325 17.3009C41.3146 13.9686 45.76 8.08 43.2923 0.874128ZM33.3786 22.425C32.9861 22.7039 32.5433 22.9017 32.0755 23.0068C31.6077 23.112 31.1241 23.1225 30.6523 23.0378C30.1805 22.9531 29.7297 22.7749 29.3258 22.5132C28.9219 22.2516 28.5727 21.9117 28.2981 21.513C27.7423 20.7062 27.5244 19.7084 27.6924 18.7387C27.8604 17.7689 28.4004 16.9065 29.194 16.3406C29.8162 15.898 30.559 15.6639 31.3186 15.6709C32.0782 15.6779 32.8167 15.9258 33.4308 16.3798C32.8139 16.7575 32.3897 16.9785 32.3103 17.0131C32.0292 17.1492 31.8019 17.3782 31.6657 17.6627C31.5296 17.9471 31.4926 18.2701 31.5609 18.5787C31.6291 18.8872 31.7986 19.1631 32.0415 19.3611C32.2844 19.5591 32.5863 19.6674 32.8978 19.6684C33.0928 19.6684 33.2924 19.6223 33.4807 19.5325C33.9207 19.3206 34.3924 19.0696 34.8846 18.7725C34.9978 19.4635 34.9165 20.173 34.6501 20.8192C34.3837 21.4653 33.9429 22.022 33.3786 22.425Z" fill="#F04926"/>
</svg>
