<svg width="33" height="32" viewBox="0 0 33 32" fill="none" xmlns="http://www.w3.org/2000/svg">
<path d="M31.9352 29.3789L21.537 19.2344C23.1506 17.1992 24.0234 14.7109 24.0234 12.0938C24.0234 8.96094 22.7702 6.02344 20.504 3.80859C18.2378 1.59375 15.2189 0.375 12.0117 0.375C8.80459 0.375 5.78565 1.59766 3.51943 3.80859C1.24922 6.01953 2.73879e-07 8.96094 0 12.0938C-2.73538e-07 15.2227 1.25322 18.168 3.51943 20.3789C5.78564 22.5938 8.80059 23.8125 12.0117 23.8125C14.6943 23.8125 17.2408 22.9609 19.3269 21.3906L29.725 31.5313C29.7555 31.561 29.7917 31.5846 29.8315 31.6007C29.8714 31.6168 29.9141 31.6251 29.9572 31.6251C30.0004 31.6251 30.0431 31.6168 30.0829 31.6007C30.1228 31.5846 30.159 31.561 30.1895 31.5313L31.9352 29.832C31.9657 29.8023 31.9899 29.767 32.0064 29.7281C32.0229 29.6892 32.0314 29.6476 32.0314 29.6055C32.0314 29.5634 32.0229 29.5217 32.0064 29.4829C31.9899 29.444 31.9657 29.4087 31.9352 29.3789ZM18.3539 18.2813C16.6563 19.9336 14.4061 20.8438 12.0117 20.8438C9.61738 20.8438 7.36719 19.9336 5.66953 18.2813C3.97588 16.625 3.04297 14.4297 3.04297 12.0938C3.04297 9.75781 3.97588 7.55859 5.66953 5.90625C7.36719 4.25391 9.61738 3.34375 12.0117 3.34375C14.4061 3.34375 16.6603 4.25 18.3539 5.90625C20.0476 7.5625 20.9805 9.75781 20.9805 12.0938C20.9805 14.4297 20.0476 16.6289 18.3539 18.2813Z" fill="black"/>
</svg>
